<svg xmlns="http://www.w3.org/2000/svg" fill="none" viewBox="0 0 24 24"><path fill="#fff" fill-rule="evenodd" d="M5.25 8.1A6.8 6.8 0 0 1 12 1.26a6.8 6.8 0 0 1 6.75 6.86c0 1.8-.51 3.74-1.42 5.41a9 9 0 0 1-3.92 3.92c-.9.41-1.93.41-2.82 0a9 9 0 0 1-3.92-3.92c-.9-1.67-1.42-3.6-1.42-5.41M12 2.76a5.3 5.3 0 0 0-5.25 5.36c0 1.54.44 3.23 1.24 4.7a7.5 7.5 0 0 0 3.23 3.27c.5.23 1.06.23 1.56 0a7.5 7.5 0 0 0 3.23-3.27 10 10 0 0 0 1.24-4.7A5.3 5.3 0 0 0 12 2.75m0 4a1.25 1.25 0 1 0 0 2.5 1.25 1.25 0 0 0 0-2.5M9.25 8a2.75 2.75 0 1 1 5.5 0 2.75 2.75 0 0 1-5.5 0m-5.62 6.53c.25.33.2.8-.12 1.06-.58.45-.76.85-.76 1.16 0 .24.11.54.44.88q.5.53 1.57 1.02c1.25.57 2.98 1 4.99 1.18v-.45a.75.75 0 0 1 1.24-.57l1.5 1.31a.75.75 0 0 1 0 1.13L11 22.56A.75.75 0 0 1 9.75 22v-.66a18 18 0 0 1-5.61-1.33 7 7 0 0 1-2.03-1.34 2.8 2.8 0 0 1-.86-1.92c0-.95.57-1.74 1.32-2.34.33-.26.8-.2 1.06.12m16.74 0a.75.75 0 0 1 1.06-.12c.75.6 1.32 1.39 1.32 2.34 0 1.38-1.17 2.41-2.55 3.1a17 17 0 0 1-5.62 1.46.75.75 0 1 1-.16-1.5c2.1-.2 3.88-.68 5.11-1.3 1.3-.65 1.72-1.3 1.72-1.76 0-.3-.18-.7-.76-1.16a.75.75 0 0 1-.12-1.06" clip-rule="evenodd"/></svg>